<?xml version="1.0" encoding="UTF-8"?>
<svg xmlns="http://www.w3.org/2000/svg" xmlns:xlink="http://www.w3.org/1999/xlink" width="425.2pt" height="283.46pt" viewBox="0 0 425.2 283.46" version="1.1">
<g id="surface1">
<path style=" stroke:none;fill-rule:nonzero;fill:rgb(9.799194%,61.599731%,74.899292%);fill-opacity:1;" d="M 49.515625 118.695313 L 146.882813 203.222656 L 171.726563 76.347656 Z M 182.226563 64.183594 L 152.050781 219.273438 L 33.011719 115.714844 Z M 182.226563 64.183594 "/>
<path style=" stroke:none;fill-rule:nonzero;fill:rgb(0%,0%,0%);fill-opacity:1;" d="M 124.875 162.414063 L 114.972656 162.414063 L 114.972656 79.007813 C 112.335938 78.570313 108.59375 78.128906 105.40625 77.910156 L 105.40625 72.078125 C 110.90625 71.417969 118.496094 70.980469 124.875 71.308594 Z M 124.875 162.414063 "/>
<path style=" stroke:none;fill-rule:nonzero;fill:rgb(0%,0%,0%);fill-opacity:1;" d="M 161.074219 115.003906 C 153.15625 115.003906 145.675781 121.050781 145.675781 134.582031 C 145.675781 147.78125 151.066406 155.042969 161.074219 155.042969 C 169.214844 155.042969 176.253906 148.664063 176.253906 134.691406 C 176.253906 122.261719 171.195313 115.003906 161.074219 115.003906 M 159.863281 163.402344 C 145.015625 163.402344 135.335938 154.824219 135.335938 135.574219 C 135.335938 119.511719 145.457031 106.753906 161.957031 106.753906 C 175.925781 106.753906 186.59375 114.453125 186.59375 134.140625 C 186.59375 150.640625 176.035156 163.402344 159.863281 163.402344 "/>
<path style=" stroke:none;fill-rule:nonzero;fill:rgb(0%,0%,0%);fill-opacity:1;" d="M 217.828125 114.121094 C 209.136719 114.121094 203.964844 119.511719 203.964844 126.882813 C 203.964844 135.023438 208.917969 139.421875 217.496094 139.421875 C 225.746094 139.421875 231.027344 134.914063 231.027344 126.882813 C 231.027344 118.851563 226.1875 114.121094 217.828125 114.121094 M 223.328125 162.960938 L 209.355469 162.960938 C 205.066406 165.164063 202.316406 168.792969 202.316406 172.972656 C 202.316406 179.460938 208.476563 182.984375 217.054688 182.984375 C 228.277344 182.984375 234.765625 178.253906 234.765625 171.542969 C 234.765625 166.261719 231.027344 162.960938 223.328125 162.960938 M 215.515625 190.902344 C 201.4375 190.902344 192.523438 185.292969 192.523438 174.84375 C 192.523438 168.351563 196.703125 163.183594 201.546875 160.652344 C 198.246094 159.113281 196.15625 156.253906 196.15625 152.621094 C 196.15625 148.773438 198.464844 145.253906 202.316406 143.492188 C 196.925781 140.414063 194.285156 134.800781 194.285156 127.871094 C 194.285156 116.324219 202.976563 106.753906 218.265625 106.753906 C 221.457031 106.753906 223.988281 107.082031 226.847656 107.742188 L 245.4375 107.742188 L 245.4375 115.550781 L 236.195313 115.550781 C 239.054688 117.753906 240.816406 121.601563 240.816406 126.222656 C 240.816406 137.992188 232.675781 146.574219 217.054688 146.574219 C 214.746094 146.574219 211.996094 146.242188 210.125 145.914063 C 207.707031 146.902344 206.605469 148.664063 206.605469 150.421875 C 206.605469 153.503906 209.355469 154.710938 215.957031 154.710938 L 226.078125 154.710938 C 237.957031 154.710938 244.554688 160.433594 244.554688 170.332031 C 244.554688 181.882813 232.675781 190.902344 215.515625 190.902344 "/>
<path style=" stroke:none;fill-rule:nonzero;fill:rgb(0%,0%,0%);fill-opacity:1;" d="M 274.894531 115.003906 C 266.976563 115.003906 259.496094 121.050781 259.496094 134.582031 C 259.496094 147.78125 264.882813 155.042969 274.894531 155.042969 C 283.035156 155.042969 290.074219 148.664063 290.074219 134.691406 C 290.074219 122.261719 285.015625 115.003906 274.894531 115.003906 M 273.683594 163.402344 C 258.835938 163.402344 249.15625 154.824219 249.15625 135.574219 C 249.15625 119.511719 259.273438 106.753906 275.773438 106.753906 C 289.746094 106.753906 300.414063 114.453125 300.414063 134.140625 C 300.414063 150.640625 289.855469 163.402344 273.683594 163.402344 "/>
<path style=" stroke:none;fill-rule:nonzero;fill:rgb(0%,0%,0%);fill-opacity:1;" d="M 319.882813 163.402344 C 315.8125 163.402344 311.746094 163.074219 308.335938 162.414063 L 308.664063 153.613281 C 312.074219 154.710938 316.472656 155.484375 320.65625 155.484375 C 327.914063 155.484375 332.863281 152.183594 332.863281 147.121094 C 332.863281 134.914063 307.453125 142.390625 307.453125 123.140625 C 307.453125 113.902344 315.042969 106.753906 329.34375 106.753906 C 332.644531 106.753906 336.496094 107.191406 339.792969 107.851563 L 339.574219 116.101563 C 336.164063 115.003906 332.203125 114.34375 328.574219 114.34375 C 321.3125 114.34375 317.683594 117.421875 317.683594 122.152344 C 317.683594 134.140625 343.203125 127.652344 343.203125 146.023438 C 343.203125 155.921875 334.40625 163.402344 319.882813 163.402344 "/>
<path style=" stroke:none;fill-rule:nonzero;fill:rgb(0%,0%,0%);fill-opacity:1;" d="M 322.449219 76.722656 C 322.449219 82.023438 318.152344 86.320313 312.847656 86.320313 C 307.546875 86.320313 303.25 82.023438 303.25 76.722656 C 303.25 71.417969 307.546875 67.121094 312.847656 67.121094 C 318.152344 67.121094 322.449219 71.417969 322.449219 76.722656 "/>
<path style=" stroke:none;fill-rule:nonzero;fill:rgb(0%,0%,0%);fill-opacity:1;" d="M 357.320313 76.722656 C 357.320313 82.023438 353.019531 86.320313 347.71875 86.320313 C 342.417969 86.320313 338.121094 82.023438 338.121094 76.722656 C 338.121094 71.417969 342.417969 67.121094 347.71875 67.121094 C 353.019531 67.121094 357.320313 71.417969 357.320313 76.722656 "/>
<path style=" stroke:none;fill-rule:nonzero;fill:rgb(0%,0%,0%);fill-opacity:1;" d="M 392.1875 76.722656 C 392.1875 82.023438 387.890625 86.320313 382.589844 86.320313 C 377.289063 86.320313 372.988281 82.023438 372.988281 76.722656 C 372.988281 71.417969 377.289063 67.121094 382.589844 67.121094 C 387.890625 67.121094 392.1875 71.417969 392.1875 76.722656 "/>
</g>
</svg>
