<svg id="Layer_1" data-name="Layer 1" xmlns="http://www.w3.org/2000/svg" viewBox="0 0 546.03 229.55"><defs><style>.cls-1{fill:#8bbfbc;}.cls-2{fill:#33255c;}</style></defs><title>Artboard 1</title><path class="cls-1" d="M138.31,180,546,152.2,536.13,0,0,63.86V189.42H.06l168.46,40.14ZM13.64,76,523.45,15.25l8.08,124.26L13.64,174.81Z"/><path class="cls-2" d="M105.2,128l8.41,9.87c-5.13,4.78-11,7.95-18.06,8.62-17.9,1.67-32.6-9.92-34.09-25.86S72.24,90.47,90.15,88.79c7.1-.66,13.42,1.37,19.35,5.19l-6.43,11.19a18.69,18.69,0,0,0-11.65-2.81c-9.46.88-16,8.26-15.21,16.86S84.82,133.85,94.29,133A19.33,19.33,0,0,0,105.2,128Z"/><path class="cls-2" d="M177.09,124.74l1.19,12.77L137,141.38l-5.17-55.22,39.92-3.74L173,95.2l-24.85,2.33.79,8.44,22.4-2.1,1.2,12.78-22.4,2.1.79,8.44Z"/><path class="cls-2" d="M262.73,73.9l5.17,55.22-15.06,1.41L250,100.63,238.2,118.69l-6.63.62-15-15.55,2.8,29.9-15.07,1.41-5.17-55.22,13.41-1.25,20.66,22.65,16.1-26.1Z"/><path class="cls-2" d="M335.65,86.8c1,10.57-6.36,20.41-19.7,21.66l-7.57.71,1.5,16-15.15,1.42-5.17-55.22,22.72-2.13C325.61,68,334.66,76.23,335.65,86.8ZM322,88.08c-.32-3.47-2.61-6.6-9.07-6l-7,.66,1.27,13.64,7-.66C320.67,95.13,322.33,91.55,322,88.08Z"/><path class="cls-2" d="M403.51,103.53l1.2,12.77-41.26,3.87L358.28,65l39.92-3.74L399.39,74l-24.85,2.33.8,8.44,22.4-2.1,1.19,12.78-22.4,2.1.79,8.44Z"/><path class="cls-2" d="M448.1,94.33l-5.52.52,1.66,17.75L429.17,114,424,58.79l22.64-2.12C460,55.42,469,62.85,470,73.34a17.7,17.7,0,0,1-7.45,16.46l14,19.77L460,111.12Zm-6.72-12.26,7-.65c6.47-.61,8.29-3.25,8-6.8s-2.61-5.72-9.08-5.12l-7,.66Z"/></svg>