<?xml version="1.0" encoding="utf-8"?>
<!-- Generator: Adobe Illustrator 19.2.1, SVG Export Plug-In . SVG Version: 6.00 Build 0)  -->
<svg version="1.1" xmlns="http://www.w3.org/2000/svg" xmlns:xlink="http://www.w3.org/1999/xlink" x="0px" y="0px"
	 viewBox="0 0 197.4 83.2" style="enable-background:new 0 0 197.4 83.2;" xml:space="preserve">
<g id="Layer_1" fill="#333332">
	<g>
		<g>
			<path class="st0" d="M77.5,21.3l-6.4,18.5h-3.8l-6.4-18.5h3.4l4.8,14.1L74,21.3H77.5z"/>
			<path class="st0" d="M79.7,19.8l2.8-0.3h0.4v20h-3.2V19.8z"/>
			<path class="st0" d="M97.4,39.8c-0.5,0-1.1-0.1-1.6-0.3c-0.5-0.2-1.1-0.6-1.6-1.2c-0.6,0.4-1.1,0.8-1.7,1.1
				c-0.6,0.3-1.3,0.4-2.2,0.4c-0.7,0-1.4-0.1-2.1-0.3c-0.7-0.2-1.4-0.7-1.8-1.3c-0.5-0.7-0.8-1.6-0.8-2.9c0-1.3,0.3-2.3,1.1-2.9
				c0.8-0.7,2-1.1,4-1.1c0.8,0,1.7,0,2.9,0.1v-0.7c0-1-0.3-1.7-0.8-2.1c-0.5-0.4-1.2-0.6-2-0.6c-0.6,0-1.3,0.1-2,0.3
				c-0.7,0.2-1.3,0.4-1.9,0.7l-0.8-2.8c1.5-0.7,3.4-1.2,5.2-1.2c1.4,0,2.8,0.3,3.8,1.1c1,0.7,1.6,1.9,1.6,3.7v5.3
				c0,0.7,0.2,1.2,0.6,1.5c0.4,0.3,0.9,0.5,1.5,0.7L97.4,39.8z M93.5,33.7c-1.5,0-2.7,0-3.5,0.2c-0.8,0.2-1.2,0.6-1.2,1.5
				c0,1.2,0.8,1.8,2,1.8c0.4,0,1.1-0.1,1.7-0.4c0.6-0.4,1.1-1,1.1-2.1V33.7z"/>
			<path class="st0" d="M111.5,39.8c-0.5,0-1.1-0.1-1.6-0.3c-0.5-0.2-1.1-0.6-1.6-1.2c-0.6,0.4-1.1,0.8-1.7,1.1
				c-0.6,0.3-1.3,0.4-2.2,0.4c-0.7,0-1.4-0.1-2.1-0.3c-0.7-0.2-1.4-0.7-1.8-1.3c-0.5-0.7-0.8-1.6-0.8-2.9c0-1.3,0.3-2.3,1.1-2.9
				c0.8-0.7,2-1.1,4-1.1c0.8,0,1.7,0,2.9,0.1v-0.7c0-1-0.3-1.7-0.8-2.1c-0.5-0.4-1.2-0.6-2-0.6c-0.6,0-1.3,0.1-2,0.3
				c-0.7,0.2-1.3,0.4-1.9,0.7l-0.8-2.8c1.5-0.7,3.4-1.2,5.2-1.2c1.4,0,2.8,0.3,3.7,1.1c1,0.7,1.6,1.9,1.6,3.7v5.3
				c0,0.7,0.2,1.2,0.6,1.5c0.4,0.3,0.9,0.5,1.5,0.7L111.5,39.8z M107.7,33.7c-1.5,0-2.7,0-3.5,0.2c-0.8,0.2-1.2,0.6-1.2,1.5
				c0,1.2,0.8,1.8,2,1.8c0.4,0,1.1-0.1,1.7-0.4c0.6-0.4,1.1-1,1.1-2.1V33.7z"/>
			<path class="st0" d="M114.9,25.2h2.7l0.3,1.1c1.3-0.9,3-1.4,4.6-1.4c1.4,0,2.7,0.4,3.6,1.2c1,0.8,1.6,2.1,1.6,3.9v9.5h-3.2v-8.6
				c0-1.1-0.4-1.8-1-2.3c-0.6-0.5-1.4-0.7-2.3-0.7c-1.1,0-2.2,0.3-3.1,0.9v10.6h-3.2V25.2z"/>
			<path class="st0" d="M143.3,39.5h-2.4l-0.6-1.1c-1.1,0.8-2.3,1.4-3.9,1.4c-2.1,0-3.6-0.8-4.6-2.1c-1-1.3-1.5-3-1.5-4.8
				c0-2.7,0.8-4.7,2.2-6.1c1.4-1.3,3.3-2,5.5-2c0.7,0,1.4,0,2.1,0.1v-5.3l2.7-0.3h0.5V39.5z M140.1,28.2c-0.8-0.2-1.6-0.3-2.3-0.3
				c-1.2,0-2.3,0.4-3,1.1c-0.7,0.7-1.1,1.9-1.1,3.3c0,1.1,0.3,2.2,0.9,3c0.6,0.8,1.4,1.4,2.6,1.4c1,0,2.1-0.3,2.9-0.9V28.2z"/>
			<path class="st0" d="M157.4,35.8v3.1c-0.7,0.3-1.3,0.5-2,0.7c-0.7,0.1-1.4,0.2-2,0.2c-2,0-3.8-0.6-5.2-1.9
				c-1.4-1.2-2.2-3.1-2.2-5.6c0-2.4,0.8-4.3,2-5.5c1.2-1.3,2.8-1.9,4.4-1.9c0.5,0,1.3,0.1,2.1,0.3c0.8,0.3,1.8,0.8,2.5,1.8
				c0.7,1,1.2,2.4,1.2,4.4v2.2h-8.7c0.3,1.2,0.9,2,1.6,2.4c0.8,0.5,1.7,0.7,2.6,0.7c1.2,0,2.5-0.3,3.6-0.9L157.4,35.8z M155.2,31
				c-0.1-1.1-0.4-1.8-0.9-2.3c-0.5-0.5-1.1-0.7-1.8-0.7c-0.7,0-1.3,0.2-1.9,0.7c-0.6,0.5-1,1.2-1.2,2.3H155.2z"/>
			<path class="st0" d="M169.1,28.7c-0.8-0.5-1.6-0.7-2.4-0.7c-1.1,0-2,0.4-2.9,1.1v10.5h-3.2V25.2h2.7l0.3,1.2
				c1-0.8,2.2-1.5,3.7-1.5c0.4,0,0.9,0,1.5,0.1c0.5,0.1,1,0.2,1.4,0.4L169.1,28.7z"/>
			<path class="st0" d="M181.5,35.8v3.1c-0.7,0.3-1.3,0.5-2,0.7c-0.7,0.1-1.4,0.2-2,0.2c-2,0-3.8-0.6-5.2-1.9
				c-1.4-1.2-2.2-3.1-2.2-5.6c0-2.4,0.8-4.3,2-5.5c1.2-1.3,2.8-1.9,4.4-1.9c0.5,0,1.3,0.1,2.1,0.3c0.8,0.3,1.8,0.8,2.5,1.8
				c0.7,1,1.2,2.4,1.2,4.4v2.2h-8.7c0.3,1.2,0.9,2,1.6,2.4c0.8,0.5,1.7,0.7,2.6,0.7c1.2,0,2.5-0.3,3.6-0.9L181.5,35.8z M179.2,31
				c-0.1-1.1-0.4-1.8-0.9-2.3c-0.5-0.5-1.1-0.7-1.8-0.7c-0.7,0-1.3,0.2-1.9,0.7c-0.6,0.5-1,1.2-1.2,2.3H179.2z"/>
			<path class="st0" d="M184.5,25.2h2.7l0.3,1.1c1.3-0.9,3-1.4,4.6-1.4c1.4,0,2.7,0.4,3.6,1.2c1,0.8,1.6,2.1,1.6,3.9v9.5h-3.2v-8.6
				c0-1.1-0.4-1.8-1-2.3c-0.6-0.5-1.4-0.7-2.3-0.7c-1.1,0-2.2,0.3-3.1,0.9v10.6h-3.2V25.2z"/>
		</g>
		<g>
			<path class="st0" d="M72.6,52.2l-2.8,8.2h-1.6l-2.8-8.2h1.3L69,59l2.4-6.9H72.6z"/>
			<path class="st0" d="M79.7,56.6h-5.1c0.1,0.9,0.4,1.6,0.9,2.1c0.5,0.5,1.1,0.7,1.8,0.7c0.7,0,1.5-0.2,2.2-0.6l0,0v1.1
				c-0.8,0.4-1.6,0.6-2.3,0.6c-1,0-2-0.3-2.7-1c-0.7-0.7-1.1-1.8-1.1-3.3c0-1.2,0.3-2.2,0.8-2.9c0.6-0.7,1.4-1.2,2.7-1.2
				c0.8,0,1.4,0.2,1.8,0.6c0.4,0.3,0.7,0.8,0.8,1.3c0.1,0.5,0.2,1.1,0.2,1.6V56.6z M78.5,55.5c0-0.6-0.1-1.2-0.3-1.6
				c-0.2-0.4-0.6-0.7-1.3-0.7c-0.6,0-1.1,0.2-1.5,0.7c-0.4,0.4-0.6,1-0.7,1.7H78.5z"/>
			<path class="st0" d="M81.9,52.2h0.8l0.3,0.9c0.6-0.7,1.2-1.1,2-1.1c0.2,0,0.4,0,0.7,0.1c0.2,0,0.5,0.1,0.7,0.2l-0.4,1.1
				c-0.3-0.1-0.8-0.3-1.1-0.3c-0.7,0-1.3,0.5-1.7,1.1v6.1h-1.2V52.2z"/>
			<path class="st0" d="M87.9,49.1L89,49h0.1v3.8c0.6-0.4,1.2-0.7,2.1-0.7c1.1,0,1.9,0.5,2.6,1.2c0.6,0.8,1,1.8,1,3
				c0,1.2-0.3,2.2-1,3C93,60,92,60.5,90.6,60.5c-1,0-2-0.3-2.7-0.6V49.1z M89.1,59.1c0.5,0.2,1.1,0.3,1.6,0.3c0.8,0,1.5-0.3,2-0.9
				c0.5-0.6,0.8-1.4,0.8-2.4c0-0.8-0.2-1.5-0.6-2.1c-0.4-0.5-1-0.9-1.9-0.9c-0.8,0-1.5,0.3-1.9,0.9V59.1z"/>
			<path class="st0" d="M102.3,56.6h-5.1c0.1,0.9,0.4,1.6,0.9,2.1s1.1,0.7,1.8,0.7c0.7,0,1.5-0.2,2.2-0.6l0,0v1.1
				c-0.8,0.4-1.6,0.6-2.3,0.6c-1,0-2-0.3-2.7-1c-0.7-0.7-1.1-1.8-1.1-3.3c0-1.2,0.3-2.2,0.8-2.9c0.6-0.7,1.4-1.2,2.7-1.2
				c0.8,0,1.4,0.2,1.8,0.6c0.4,0.3,0.7,0.8,0.8,1.3c0.1,0.5,0.2,1.1,0.2,1.6V56.6z M101.1,55.5c0-0.6-0.1-1.2-0.3-1.6
				c-0.2-0.4-0.6-0.7-1.3-0.7c-0.6,0-1.1,0.2-1.5,0.7c-0.4,0.4-0.6,1-0.7,1.7H101.1z"/>
			<path class="st0" d="M109.7,56.6h-5.1c0.1,0.9,0.4,1.6,0.9,2.1s1.1,0.7,1.8,0.7c0.7,0,1.5-0.2,2.2-0.6l0,0v1.1
				c-0.8,0.4-1.6,0.6-2.3,0.6c-1,0-2-0.3-2.7-1c-0.7-0.7-1.1-1.8-1.1-3.3c0-1.2,0.3-2.2,0.8-2.9c0.6-0.7,1.4-1.2,2.7-1.2
				c0.8,0,1.4,0.2,1.8,0.6c0.4,0.3,0.7,0.8,0.8,1.3c0.1,0.5,0.2,1.1,0.2,1.6V56.6z M108.5,55.5c0-0.6-0.1-1.2-0.3-1.6
				c-0.2-0.4-0.6-0.7-1.3-0.7c-0.6,0-1.1,0.2-1.5,0.7c-0.4,0.4-0.6,1-0.7,1.7H108.5z"/>
			<path class="st0" d="M111.5,49.1l1.1-0.2h0.1v11.4h-1.2V49.1z"/>
			<path class="st0" d="M121.4,60.3h-0.8l-0.3-0.7c-0.6,0.5-1.4,0.9-2.3,0.9c-1.1,0-1.9-0.5-2.6-1.3c-0.6-0.8-1-1.9-1-3.1
				c0-1.2,0.3-2.2,1-2.9c0.7-0.7,1.7-1.2,3.1-1.2c0.5,0,1,0.1,1.5,0.2v-3.1l1.1-0.2h0.1V60.3z M120.2,53.5c-0.5-0.2-1.1-0.3-1.6-0.3
				c-0.8,0-1.5,0.3-2,0.8c-0.5,0.5-0.8,1.3-0.8,2.3c0,0.8,0.2,1.6,0.6,2.2c0.4,0.6,1,1,1.9,1c0.8,0,1.5-0.3,1.9-0.9V53.5z"/>
			<path class="st0" d="M123.9,50c0-0.2,0.1-0.4,0.3-0.6c0.1-0.1,0.4-0.2,0.6-0.2c0.2,0,0.4,0.1,0.6,0.2c0.2,0.2,0.3,0.4,0.3,0.6
				c0,0.2-0.1,0.4-0.3,0.6c-0.2,0.2-0.4,0.3-0.6,0.3c-0.2,0-0.4-0.1-0.6-0.3C124,50.4,123.9,50.2,123.9,50z M124.1,52.2h1.2v8.2
				h-1.2V52.2z"/>
			<path class="st0" d="M128.1,52.2h0.8l0.2,0.8c0.3-0.2,0.7-0.4,1.2-0.6c0.4-0.2,0.9-0.3,1.3-0.3c0.8,0,1.5,0.2,2,0.7
				c0.5,0.5,0.9,1.3,0.9,2.4v5.2h-1.2v-5.1c0-0.8-0.2-1.3-0.5-1.6c-0.3-0.3-0.8-0.4-1.3-0.4c-0.4,0-0.8,0.1-1.1,0.3
				c-0.4,0.1-0.7,0.3-1,0.5v6.4h-1.2V52.2z"/>
			<path class="st0" d="M140.1,58.6c1.1,0,1.9,0.3,2.5,0.7c0.5,0.4,0.8,1,0.8,1.6c0,0.9-0.5,1.7-1.3,2.2c-0.8,0.6-1.8,0.9-2.9,0.9
				c-0.9,0-1.7-0.3-2.2-0.8c-0.5-0.5-0.8-1.1-0.8-1.8c0-0.7,0.4-1.4,1-2.1c-0.2-0.1-0.4-0.3-0.5-0.6c-0.1-0.2-0.2-0.5-0.2-0.7
				c0-0.4,0.2-0.9,0.6-1.4c-0.2-0.2-0.4-0.5-0.5-0.9c-0.1-0.3-0.2-0.7-0.2-1.1c0-0.8,0.3-1.5,0.8-1.9c0.5-0.5,1.3-0.8,2.2-0.8
				c0.6,0,1.1,0.1,1.6,0.4c0.3-0.3,0.7-0.5,1.1-0.6c0.4-0.1,0.7-0.2,1-0.2l0.4,1c-0.4,0.1-1,0.3-1.5,0.6c0.3,0.4,0.5,1,0.5,1.5
				c0,0.8-0.3,1.5-0.8,2c-0.5,0.5-1.3,0.9-2.2,0.9c-0.6,0-1.1-0.1-1.5-0.4c-0.2,0.2-0.3,0.5-0.3,0.7c0,0.4,0.4,0.7,1,0.7H140.1z
				 M138.1,59.7c-0.4,0.5-0.7,1.1-0.7,1.7c0,0.5,0.1,0.9,0.4,1.2c0.3,0.3,0.8,0.5,1.5,0.5c0.8,0,1.5-0.3,2-0.7
				c0.5-0.4,0.8-0.9,0.8-1.4c0-0.6-0.4-0.9-0.9-1.1c-0.6-0.2-1.4-0.2-2.2-0.2H138.1z M139.4,53.1c-0.6,0-1.1,0.2-1.4,0.5
				c-0.3,0.3-0.5,0.7-0.5,1.2c0,0.4,0.2,0.8,0.5,1.2c0.3,0.3,0.8,0.5,1.4,0.5c0.6,0,1.1-0.2,1.4-0.5c0.3-0.3,0.5-0.7,0.5-1.1
				c0-0.4-0.2-0.8-0.5-1.2C140.5,53.3,140,53.1,139.4,53.1z"/>
			<path class="st0" d="M160.5,52.2l-2.6,8.2h-1.5l-1.8-6.2l-1.8,6.2h-1.5l-2.6-8.2h1.2l2.2,6.8l2-6.8h1.1l2,6.8l2.2-6.8H160.5z"/>
			<path class="st0" d="M167.7,56.6h-5.1c0.1,0.9,0.4,1.6,0.9,2.1c0.5,0.5,1.1,0.7,1.8,0.7c0.7,0,1.5-0.2,2.2-0.6l0,0v1.1
				c-0.8,0.4-1.6,0.6-2.3,0.6c-1,0-2-0.3-2.7-1c-0.7-0.7-1.1-1.8-1.1-3.3c0-1.2,0.3-2.2,0.8-2.9c0.6-0.7,1.4-1.2,2.7-1.2
				c0.8,0,1.4,0.2,1.8,0.6c0.4,0.3,0.7,0.8,0.8,1.3c0.1,0.5,0.2,1.1,0.2,1.6V56.6z M166.5,55.5c0-0.6-0.1-1.2-0.3-1.6
				c-0.2-0.4-0.6-0.7-1.3-0.7c-0.6,0-1.1,0.2-1.5,0.7c-0.4,0.4-0.6,1-0.7,1.7H166.5z"/>
			<path class="st0" d="M169.9,52.2h0.8l0.3,0.9c0.6-0.7,1.2-1.1,2-1.1c0.2,0,0.4,0,0.7,0.1c0.2,0,0.5,0.1,0.7,0.2l-0.4,1.1
				c-0.3-0.1-0.8-0.3-1.1-0.3c-0.7,0-1.3,0.5-1.7,1.1v6.1h-1.2V52.2z"/>
			<path class="st0" d="M181.5,60.5c-0.4,0-0.9-0.3-1.4-0.7c-0.5-0.4-1-0.9-1.4-1.4c-0.4-0.5-0.9-1-1.1-1.4
				c-0.1-0.2-0.3-0.4-0.4-0.5c-0.1-0.1-0.1-0.2-0.2-0.3v4.1h-1.2V49.2L177,49h0.1V56l3.2-3.9h1.6l-3.3,3.9c0,0.2,0.3,0.6,0.7,1
				c0.4,0.4,0.9,1,1.4,1.4c0.5,0.4,1,0.8,1.4,0.9L181.5,60.5z"/>
			<path class="st0" d="M182.6,52.2h0.9v-1.5l1.1-0.2h0.1v1.7h2.3v1.1h-2.3v4c0,0.7,0.2,1.2,0.4,1.6c0.3,0.3,0.6,0.5,1,0.5
				c0.5,0,1-0.2,1.5-0.5L188,60c-0.7,0.3-1.4,0.5-2,0.5c-0.7,0-1.3-0.2-1.8-0.7c-0.5-0.5-0.7-1.3-0.7-2.4v-4h-0.9V52.2z"/>
		</g>

			<rect x="50.8" y="-2.3" transform="matrix(0.9467 -0.322 0.322 0.9467 -10.6725 18.6385)" class="st0" width="0.4" height="87.7"/>
		<g>
			<path class="st0" d="M36.9,41.4c-2-1.6-3,0-4.3-0.1c-1.1-0.1-2.1-1.8-2.9-1.4c-1.6,0.8,0.6,3.7,1.6,4.3c0.9,0.5,2,1,2.2,1.1
				c1.3,0.6,1.8,1.5,2,2.9c0,0.3,0,1.1-0.1,1.4c-0.6,2.5-5,4.8-7.5,3c-1.2-0.8-2.3-1.9-2.6-3.7c-0.7-3.3-3-5.7-3.8-8.9
				c-0.5-1.9-0.8-4-1.3-6c-0.5-2-1-4-1.5-5.9c-0.4-1.7-1.2-4.3-1.8-5.8c-2.4-6.3-3.5-5.8-3.5-5.8s0.9,1.7,4,17.1
				c0.1,0.6,1.3,7.4,2.1,9.6c0.3,0.8,0.8,2.5,1.2,3.2c1,2.2,3.7,5.5,3.8,8.5c0.1,1.7,0.3,3.2,0.3,4.5c0,0.4,0.2,1.9,0.4,2.6
				c0.7,1.8,5.9,7.7,11.5,7.7v-4.5c-5.5,0-10.8-3.1-10.9-3.4c-0.1-0.1,0.3-2.3,0.7-3.2c0.7-1.8,2.1-3.5,4.5-3.7
				c2.7-0.2,4.3,0.6,5.7,0.6L36.9,41.4z"/>
			<path class="st0" d="M12.8,25.2c-0.2,3.4-5.4,7.9-7,10.9C5,37.5,4,40,3.8,41.4c-0.7,4,0.2,6.5,1.2,8.8C6.7,54.3,4.7,55.9,6,55
				c1.7-1.4,1.4-4.5,1.3-6.5c-0.1-1.6-0.2-3.4,0-5.3c0.5-3.6,2.6-7.4,4.5-10.1C14,30,13.2,26.6,12.8,25.2"/>
			<path class="st0" d="M13.9,34.7c0,0,0.6,2.7-1.8,9.5C5.9,62,17.6,63.7,21,67.9c0,0,1.3-1.8-4-7.6c-1.9-2.1-3.7-6.8-2.2-13.5
				C17,37.1,13.9,34.7,13.9,34.7"/>
			<path class="st0" d="M2.3,23C2,21.9,1.9,21,2,20.1c0.3-4.2,4.1-5.9,5-6.5c0,0,1.7-1.2,1.9-2.4c0,0,1.8,4.4-2.3,6.9
				C4.6,19.5,3.3,21,2.3,23"/>
			<path class="st0" d="M11.9,18.9c0.2,0.4,1.8,2.7-4.7,8.1c-6.5,5.3-4.4,9.1-4.4,9.1s-6.9-3.8,1-10.5c7.9-6.6,6.3-8,6.3-8
				S11.3,17.7,11.9,18.9"/>
			<path class="st0" d="M20.3,21c1.1,0.1,1.8,3.6,4.4,4.4c1.9,0.6,3.9,0.3,4.4,1.4c-0.9,0.5-0.2,2,0.7,1.7
				C30.5,26.5,30.8,18.6,20.3,21z M23.8,22.5c0.1-0.2,0.2,0,0.5-0.2c0.3-0.3,0.6-0.8,1.1-0.9c0.4-0.1,0.8-0.1,1.2,0.1
				c0.2,0.1,0.1,0.6-0.1,0.8c-0.3,0.3-1.4-0.2-1.4,0.6c0,1.3,1.7,0,2.6,0C28.1,25.9,23,25.1,23.8,22.5z"/>
		</g>
	</g>
</g>
</svg>
